<svg width="18" height="18" viewBox="0 0 18 18" fill="none" xmlns="http://www.w3.org/2000/svg">
<path id="Icon" fill-rule="evenodd" clip-rule="evenodd" d="M5.25 0C5.66421 0 6 0.335786 6 0.75V3.25C6 4.76878 4.76878 6 3.25 6H0.75C0.335786 6 0 5.66421 0 5.25C0 4.83579 0.335786 4.5 0.75 4.5H3.25C3.94036 4.5 4.5 3.94036 4.5 3.25V0.75C4.5 0.335786 4.83579 0 5.25 0ZM12.75 0C13.1642 0 13.5 0.335786 13.5 0.75V3.25C13.5 3.94036 14.0596 4.5 14.75 4.5H17.25C17.6642 4.5 18 4.83579 18 5.25C18 5.66421 17.6642 6 17.25 6H14.75C13.2312 6 12 4.76878 12 3.25V0.75C12 0.335786 12.3358 0 12.75 0ZM0 12.75C0 12.3358 0.335786 12 0.75 12H3.25C4.76878 12 6 13.2312 6 14.75V17.25C6 17.6642 5.66421 18 5.25 18C4.83579 18 4.5 17.6642 4.5 17.25V14.75C4.5 14.0596 3.94036 13.5 3.25 13.5H0.75C0.335786 13.5 0 13.1642 0 12.75ZM12 14.75C12 13.2312 13.2312 12 14.75 12H17.25C17.6642 12 18 12.3358 18 12.75C18 13.1642 17.6642 13.5 17.25 13.5H14.75C14.0596 13.5 13.5 14.0596 13.5 14.75V17.25C13.5 17.6642 13.1642 18 12.75 18C12.3358 18 12 17.6642 12 17.25V14.75Z" fill="black"/>
</svg>
